# xmcd
#
# Track frame offsets:
# 150
# 12552
# 27853
# 44867
# 62552
# 79710
# 91223
# 111075
# 123802
# 138296
# 151031
# 168001
# 185062
# 194462
# 204520
# 226532
# 238484
# 250736
# 271795
# 288099
# 299689
# 311979
# 322212
# 334232
#
# Disc length: 4650 seconds
#
#
# Revision: 0
# Processed by: cddbd v1.5.2PL0 Copyright (c) Steve Scherf et al.
# Submitted via: FreeRIP 2.951 
#
DISCID=5b122818
DTITLE=Sampler - Bert´s Rock X´mas
DYEAR=2004
DGENRE=Classic Rock
TTITLE0=Chuck Berry - Run Rudolph run
TTITLE1=George Thorogood - Rock´n´Roll christmas
TTITLE2=Gary Glitter - Another Rock´n´Roll christmas
TTITLE3=B.B. King - Merry christmas baby
TTITLE4=Brian Setzer Orchestra - Santa Claus is back in town
TTITLE5=Canned Heat - Christmas Blues
TTITLE6=Fabulous Thunderbirds - Merry Christmas darling
TTITLE7=Spencer Davis Group - Christmas day
TTITLE8=Bishop Gatemouth Moore - Gate´s christmas Blues
TTITLE9=B.B. King - Even Santa gets the Blues
TTITLE10=The Drifters and Bill Pinkney - Santa Claus Blues
TTITLE11=Hello - Christmas can´t be beat
TTITLE12=The Ramones - Merry christmas
TTITLE13=Clarence Carter - Back door Santa
TTITLE14=Bruce Springsteen - Merry christmas baby
TTITLE15=John Cougar Mellencamp - I saw mommy kissing Santa Claus
TTITLE16=Brian Adams - Run Rudolph run
TTITLE17=Hello - Santa Rock
TTITLE18=The Rattles - Santa comes rockin´
TTITLE19=Alvin Stardust - A wonderful time up there
TTITLE20=Shakin´ Stevens - Blue christmas
TTITLE21=Brian Setzer Orchestra - Jingle Bells
TTITLE22=Brian Setzer Orchestra - Sleigh ride
TTITLE23=Johnny Preston - I want a Rock´n´Roll guitar
EXTD=
EXTT0=
EXTT1=
EXTT2=
EXTT3=
EXTT4=
EXTT5=
EXTT6=
EXTT7=
EXTT8=
EXTT9=
EXTT10=
EXTT11=
EXTT12=
EXTT13=
EXTT14=
EXTT15=
EXTT16=
EXTT17=
EXTT18=
EXTT19=
EXTT20=
EXTT21=
EXTT22=
EXTT23=
PLAYORDER=
